<svg id="visual" viewBox="0 0 960 540" width="960" height="540" xmlns="http://www.w3.org/2000/svg" xmlns:xlink="http://www.w3.org/1999/xlink" version="1.1"><rect x="0" y="0" width="960" height="540" fill="#07628b"></rect><path d="M0 408L22.8 390.7C45.7 373.3 91.3 338.7 137 335.3C182.7 332 228.3 360 274 359C319.7 358 365.3 328 411.2 320C457 312 503 326 548.8 341C594.7 356 640.3 372 686 372.8C731.7 373.7 777.3 359.3 823 357.8C868.7 356.3 914.3 367.7 937.2 373.3L960 379L960 541L937.2 541C914.3 541 868.7 541 823 541C777.3 541 731.7 541 686 541C640.3 541 594.7 541 548.8 541C503 541 457 541 411.2 541C365.3 541 319.7 541 274 541C228.3 541 182.7 541 137 541C91.3 541 45.7 541 22.8 541L0 541Z" fill="#1b729a"></path><path d="M0 362L22.8 362.7C45.7 363.3 91.3 364.7 137 373C182.7 381.3 228.3 396.7 274 407.5C319.7 418.3 365.3 424.7 411.2 411.8C457 399 503 367 548.8 351.3C594.7 335.7 640.3 336.3 686 353C731.7 369.7 777.3 402.3 823 405.5C868.7 408.7 914.3 382.3 937.2 369.2L960 356L960 541L937.2 541C914.3 541 868.7 541 823 541C777.3 541 731.7 541 686 541C640.3 541 594.7 541 548.8 541C503 541 457 541 411.2 541C365.3 541 319.7 541 274 541C228.3 541 182.7 541 137 541C91.3 541 45.7 541 22.8 541L0 541Z" fill="#2087b6"></path><path d="M0 450L22.8 438.8C45.7 427.7 91.3 405.3 137 398.3C182.7 391.3 228.3 399.7 274 402.2C319.7 404.7 365.3 401.3 411.2 409C457 416.7 503 435.3 548.8 433.8C594.7 432.3 640.3 410.7 686 410.5C731.7 410.3 777.3 431.7 823 442C868.7 452.3 914.3 451.7 937.2 451.3L960 451L960 541L937.2 541C914.3 541 868.7 541 823 541C777.3 541 731.7 541 686 541C640.3 541 594.7 541 548.8 541C503 541 457 541 411.2 541C365.3 541 319.7 541 274 541C228.3 541 182.7 541 137 541C91.3 541 45.7 541 22.8 541L0 541Z" fill="#269cd3"></path><path d="M0 501L22.8 500C45.7 499 91.3 497 137 488.3C182.7 479.7 228.3 464.3 274 451.8C319.7 439.3 365.3 429.7 411.2 429.7C457 429.7 503 439.3 548.8 448.8C594.7 458.3 640.3 467.7 686 463.8C731.7 460 777.3 443 823 444.2C868.7 445.3 914.3 464.7 937.2 474.3L960 484L960 541L937.2 541C914.3 541 868.7 541 823 541C777.3 541 731.7 541 686 541C640.3 541 594.7 541 548.8 541C503 541 457 541 411.2 541C365.3 541 319.7 541 274 541C228.3 541 182.7 541 137 541C91.3 541 45.7 541 22.8 541L0 541Z" fill="#54aad9"></path><path d="M0 507L22.8 506C45.7 505 91.3 503 137 503.5C182.7 504 228.3 507 274 508.2C319.7 509.3 365.3 508.7 411.2 500.5C457 492.3 503 476.7 548.8 470.3C594.7 464 640.3 467 686 477C731.7 487 777.3 504 823 503C868.7 502 914.3 483 937.2 473.5L960 464L960 541L937.2 541C914.3 541 868.7 541 823 541C777.3 541 731.7 541 686 541C640.3 541 594.7 541 548.8 541C503 541 457 541 411.2 541C365.3 541 319.7 541 274 541C228.3 541 182.7 541 137 541C91.3 541 45.7 541 22.8 541L0 541Z" fill="#75b9df"></path></svg>