<svg id="visual" viewBox="0 0 540 960" width="540" height="960" xmlns="http://www.w3.org/2000/svg" xmlns:xlink="http://www.w3.org/1999/xlink" version="1.1"><rect x="0" y="0" width="540" height="960" fill="#07628b"></rect><path d="M0 664L12.8 665C25.7 666 51.3 668 77 658.8C102.7 649.7 128.3 629.3 154 632C179.7 634.7 205.3 660.3 231.2 665C257 669.7 283 653.3 308.8 637C334.7 620.7 360.3 604.3 386 596.3C411.7 588.3 437.3 588.7 463 595.8C488.7 603 514.3 617 527.2 624L540 631L540 961L527.2 961C514.3 961 488.7 961 463 961C437.3 961 411.7 961 386 961C360.3 961 334.7 961 308.8 961C283 961 257 961 231.2 961C205.3 961 179.7 961 154 961C128.3 961 102.7 961 77 961C51.3 961 25.7 961 12.8 961L0 961Z" fill="#1b729a"></path><path d="M0 743L12.8 724.7C25.7 706.3 51.3 669.7 77 661.7C102.7 653.7 128.3 674.3 154 678.5C179.7 682.7 205.3 670.3 231.2 670.5C257 670.7 283 683.3 308.8 683C334.7 682.7 360.3 669.3 386 672.2C411.7 675 437.3 694 463 706C488.7 718 514.3 723 527.2 725.5L540 728L540 961L527.2 961C514.3 961 488.7 961 463 961C437.3 961 411.7 961 386 961C360.3 961 334.7 961 308.8 961C283 961 257 961 231.2 961C205.3 961 179.7 961 154 961C128.3 961 102.7 961 77 961C51.3 961 25.7 961 12.8 961L0 961Z" fill="#2087b6"></path><path d="M0 756L12.8 753.7C25.7 751.3 51.3 746.7 77 750.3C102.7 754 128.3 766 154 776.2C179.7 786.3 205.3 794.7 231.2 784.2C257 773.7 283 744.3 308.8 730.5C334.7 716.7 360.3 718.3 386 721.8C411.7 725.3 437.3 730.7 463 733.7C488.7 736.7 514.3 737.3 527.2 737.7L540 738L540 961L527.2 961C514.3 961 488.7 961 463 961C437.3 961 411.7 961 386 961C360.3 961 334.7 961 308.8 961C283 961 257 961 231.2 961C205.3 961 179.7 961 154 961C128.3 961 102.7 961 77 961C51.3 961 25.7 961 12.8 961L0 961Z" fill="#269cd3"></path><path d="M0 858L12.8 859.2C25.7 860.3 51.3 862.7 77 854.5C102.7 846.3 128.3 827.7 154 815.5C179.7 803.3 205.3 797.7 231.2 791.3C257 785 283 778 308.8 786.5C334.7 795 360.3 819 386 832.8C411.7 846.7 437.3 850.3 463 853.2C488.7 856 514.3 858 527.2 859L540 860L540 961L527.2 961C514.3 961 488.7 961 463 961C437.3 961 411.7 961 386 961C360.3 961 334.7 961 308.8 961C283 961 257 961 231.2 961C205.3 961 179.7 961 154 961C128.3 961 102.7 961 77 961C51.3 961 25.7 961 12.8 961L0 961Z" fill="#54aad9"></path><path d="M0 846L12.8 849C25.7 852 51.3 858 77 865.7C102.7 873.3 128.3 882.7 154 884.3C179.7 886 205.3 880 231.2 872.2C257 864.3 283 854.7 308.8 856.8C334.7 859 360.3 873 386 883.3C411.7 893.7 437.3 900.3 463 896.8C488.7 893.3 514.3 879.7 527.2 872.8L540 866L540 961L527.2 961C514.3 961 488.7 961 463 961C437.3 961 411.7 961 386 961C360.3 961 334.7 961 308.8 961C283 961 257 961 231.2 961C205.3 961 179.7 961 154 961C128.3 961 102.7 961 77 961C51.3 961 25.7 961 12.8 961L0 961Z" fill="#75b9df"></path></svg>